<svg xmlns="http://www.w3.org/2000/svg" viewBox="31.8 202.1 896.2 153.9"><path d="M328.9 308.9c16.6 0 30.1-13.5 30.1-30.1s-13.5-30.1-30.1-30.1-30.1 13.5-30.1 30.1 13.5 30.1 30.1 30.1m-38.3-30.2c0-21.2 17.2-38.3 38.3-38.3 21.2 0 38.3 17.2 38.3 38.3 0 21.2-17.2 38.3-38.3 38.3-21.1.1-38.3-17.1-38.3-38.3m-53.4 0c4.7-.6 12.7-6 15.4-9.5-1 4.3-1.1 16.7.1 21-3.1-4.8-10.7-10.9-15.5-11.5m-27.5-40.6c6 0 10.8 5.9 10.8 12.7s-4.7 12.7-10.8 12.7H189V238h20.7v.1zm-.1 56.6c6 0 10.8 5.9 10.8 12.7 0 6.8-4.7 12.7-10.8 12.7h-20.7v-25.5l20.7.1zM328.9 356c42.2 0 76.5-35.1 76.5-77.3 0-43.1-34.3-76.6-76.5-76.6-42.1 0-63.7 31-69 43.5 0-18.8-18.5-41-40.2-41h-69.8v150.6H215c26.3 0 44.9-22.7 45-42.2 6 12.3 26.8 43 68.9 43m-187.5-.7h-40.9v-58.5H73.9v58.5h-42l-.1-150.7H74v56h26.6v-56h40.9v150.7h-.1zM898.4 225c1 .6 2.4 1.1 3.9 1.1 2.2 0 3.6-1.2 3.6-2.9 0-1.6-.9-2.5-3.2-3.4-2.8-1-4.5-2.4-4.5-4.8 0-2.7 2.2-4.6 5.5-4.6 1.7 0 3 .4 3.8.8l-.6 1.8c-.6-.3-1.7-.8-3.2-.8-2.3 0-3.2 1.4-3.2 2.6 0 1.6 1 2.4 3.4 3.3 2.9 1.1 4.3 2.5 4.3 5 0 2.6-1.9 4.9-6 4.9-1.6 0-3.4-.5-4.3-1.1l.5-1.9zM925.5 220.2c-.1-2.4-.3-5.2-.3-7.4h-.1c-.6 2-1.3 4.1-2.1 6.5l-3 8.3h-1.7l-2.8-8.1c-.8-2.4-1.5-4.6-2-6.6 0 2.1-.2 5-.3 7.5l-.5 7.3h-2.1l1.2-17h2.8l2.9 8.2c.7 2.1 1.3 4 1.7 5.7h.1c.4-1.7 1-3.6 1.8-5.7l3-8.2h2.8l1.1 17h-2.1l-.4-7.5zM534.8 333.1l-90.1-122.5h-13.2v138.7h9.7V222.6L534 349.3h10.5V210.6h-9.7zM879.5 210.6l-39 122.6-37.6-121.4-.4-1.2h-7l-37.2 122.6-39.1-121.5-.3-1.1h-10.3l44.1 138.7h10.9l35.5-116.7 35.5 116.7h10.7l44.3-138.7zM635.4 208c-40.2 0-71.7 30.3-71.7 70.7 0 41 30.8 73.1 71.7 73.1s71.7-32.1 71.7-73.1c0-41-30.8-70.7-71.7-70.7zm0 135.7c-35.3 0-61.6-29.1-61.6-64.9 0-35.7 26.3-62.5 61.6-62.5S697 243 697 278.7c0 35.8-26.3 65-61.6 65z"/></svg>