<svg id="edd2289f-3674-4f13-a7b9-67e717103253" data-name="Layer 1" xmlns="http://www.w3.org/2000/svg" xmlns:xlink="http://www.w3.org/1999/xlink" viewBox="0 0 367.56 166.76"><defs><clipPath id="90638b39-53a8-40d3-86db-015120a4d95d" transform="translate(-248.22 -348.62)"><polygon points="508.59 372.44 543.14 372.44 581.25 432 543.14 491.56 508.59 491.56 546.7 432 508.59 372.44" style="fill:none"/></clipPath><radialGradient id="f93b74fd-4e2c-4f41-bf82-fefa4c757b8c" cx="-642.31" cy="98.86" fx="-600.2628427063855" r="64.01" gradientTransform="matrix(0.6, 0, 0, -0.84, 690.18, 166.42)" gradientUnits="userSpaceOnUse"><stop offset="0.17" stop-color="#f7be16"/><stop offset="0.51" stop-color="#e8a623"/><stop offset="1" stop-color="#cb7d29"/></radialGradient></defs><title>plex-logo</title><polygon id="1a965f94-cfa7-4303-a5cb-a0512d980ac3" data-name="X" points="367.56 23.82 333.03 23.82 298.48 83.38 333.03 142.94 367.53 142.94 333.03 83.41 367.56 23.82" style="fill:#1f1f1f"/><g id="a49b3d24-302c-4186-bec9-9d3112a8b564" data-name="chevron"><g style="clip-path:url(#90638b39-53a8-40d3-86db-015120a4d95d)"><rect id="c32de0ab-f834-4273-bc09-fd992b25545f" data-name="orange" x="210.22" y="23.83" width="119.12" height="119.12" style="fill:#cb7d29"/></g><g style="clip-path:url(#90638b39-53a8-40d3-86db-015120a4d95d)"><rect id="faf999f6-1d53-4f09-b1e1-42559b085a9f" data-name="gradient" x="269.06" width="71.47" height="166.76" style="fill:url(#f93b74fd-4e2c-4f41-bf82-fefa4c757b8c)"/></g></g><path id="4049a845-d6e4-4237-ac1a-09069e143792" data-name="E" d="M496.66,491.56H427.94V372.44h68.73v20.69H453.24v26.15h40.41V440H453.24v30.71h43.42v20.87Z" transform="translate(-248.22 -348.62)" style="fill:#1f1f1f"/><path id="d24fb4a1-7683-4545-bc3a-5fbe1937e969" data-name="L" d="M342.46,491.56V372.44h25.26v98.25H416v20.87H342.46Z" transform="translate(-248.22 -348.62)" style="fill:#1f1f1f"/><path id="4d86e2a7-eaff-42a6-b275-1b50c16a9c4a" data-name="P" d="M330.51,409.59q0,19.23-12,29.42t-34.17,10.18H273.48v42.37H248.22V372.44h38.05q21.67,0,32.95,9.33T330.51,409.59Zm-57,18.9h8.31q11.66,0,17.43-4.6T305,410.49q0-8.88-4.85-13.12T285,393.13H273.48V428.5Z" transform="translate(-248.22 -348.62)" style="fill:#1f1f1f"/></svg>