<?xml version="1.0" encoding="utf-8"?>
<!-- Generator: Adobe Illustrator 18.0.0, SVG Export Plug-In . SVG Version: 6.00 Build 0)  -->
<!DOCTYPE svg PUBLIC "-//W3C//DTD SVG 1.1//EN" "http://www.w3.org/Graphics/SVG/1.1/DTD/svg11.dtd">
<svg version="1.1" id="Layer_1" xmlns="http://www.w3.org/2000/svg" xmlns:xlink="http://www.w3.org/1999/xlink" x="0px" y="0px"
	 viewBox="0 115 300 75" enable-background="new 0 115 300 75" xml:space="preserve">
<g>
	<path fill="#525252" d="M111.2,150.2c11.6,6.8,12.8,20.2,12.8,20.2h-10.3c-4.3-17.3-15-19-15-19s-3,0-4.8,0v18.9H83.5v-41.2
		c0-1.9-0.3-4.1-1.5-5.6c-0.3-0.3-0.3-0.6-0.1-0.7c4.8-1,13.2-1.4,18.7-1.4c11.6,0,21.6,3.6,21.6,14.7v0.6c0,6.9-4,11.2-10.1,13.3
		L111.2,150.2z M111.9,136.1c0-4.9-3.8-7-11.3-7c-1.6,0-5.3,0.1-6.7,0.3v14.6c1.2,0.1,5.4,0.2,6.7,0.2c7.8,0,11.3-1.8,11.3-7.5
		V136.1z"/>
	<path fill="#525252" d="M158,154.9h-24.5v0.2c0,3.8,1.8,8.3,9,8.3c5.5,0,10.7-0.4,13.8-0.7c0.1,0,0.2,0,0.2,0c0.8,0,1.3,0.3,1.3,1
		v4.3c0,1-0.2,1.5-1.6,1.7c-4.9,0.8-7.8,1.1-14.6,1.1c-7.5,0-18.2-3.5-18.2-16.3v-4.8c0-10.2,6.5-16.5,18-16.5
		c11.6,0,17.9,6.8,17.9,16.5v3.6C159.5,154.4,159.1,154.9,158,154.9z M149.6,148.6c0-5.1-3.2-8-7.9-8c-4.7,0-8,2.9-8,8v0.3h15.9
		L149.6,148.6L149.6,148.6z"/>
	<path fill="#525252" d="M196.1,170c-1.8-1-3.4-0.8-5.2-0.5c-4.7,1-6.1,1.3-10.9,1.3c-12.1,0-18-6.2-18-16.3v-5
		c0-10.2,5.9-16.3,18-16.3c4.8,0,10.4,0.7,15.1,1.7c1.7,0.4,2,0.8,2,1.8v33.3C197.1,170.1,196.4,170.2,196.1,170z M187.2,140.6
		c-1.4-0.3-4.5-0.5-7.2-0.5c-6.5,0-8,4-8,9.3v5c0,5.3,1.6,9.3,8,9.3c2.7,0,5.8-0.2,7.2-0.5V140.6z"/>
	<path fill="#525252" d="M241.6,170.3v-48.2c0-0.7,0.7-1.3,1.5-1.3h7c0.8,0,1.4,0.6,1.4,1.3v48.2H241.6z"/>
	<path fill="#525252" d="M274.6,182.2c-0.1-0.5,0.5-0.8,0.5-0.8c6.5-1.9,7.1-6.2,7.1-10.6v-0.5c-1.6,0.3-5.4,0.7-7.2,0.7
		c-12.1,0-18-6.2-18-16.3v-19.6c0-0.7,0.7-1.3,1.5-1.3h6.9c0.8,0,1.5,0.6,1.5,1.3v19.6c0,5.3,1.6,9.3,8,9.3c1.8,0,5.1-0.3,7.2-0.5
		V135c0-0.7,0.7-1.3,1.5-1.3h6.9c0.8,0,1.5,0.6,1.5,1.3v29.2c0,10.8-5.3,18-17,18.5C275.3,182.7,274.8,182.7,274.6,182.2z"/>
	<path fill="#525252" d="M236,122.1c0-0.7-0.7-1.3-1.5-1.3h-6.9c-0.8,0-1.5,0.6-1.5,1.3v11.5c-2.8-0.3-5.4-0.5-7.2-0.5
		c-12.1,0-18,6.2-18,16.3v5c0,10.1,5.9,16.3,18,16.3l0,0c4.8,0,6.3-0.4,10.9-1.3c1.8-0.3,3.8-0.4,5.2,0.5c0.3,0.2,1,0.2,1,0v-47.5
		L236,122.1z M226.1,163.4c-1.4,0.3-4.5,0.5-7.2,0.5c-6.5,0-8-4-8-9.3v-5c0-5.3,1.6-9.3,8-9.3c1.8,0,5.1,0.2,7.2,0.5V163.4z"/>
</g>
<linearGradient id="SVGID_1_" gradientUnits="userSpaceOnUse" x1="115.1" y1="285.4" x2="115.1" y2="184.7264" gradientTransform="matrix(0.4171 0 0 -0.4171 0 238.1482)">
	<stop  offset="0" style="stop-color:#FFD700"/>
	<stop  offset="1" style="stop-color:#FF9D00"/>
</linearGradient>
<path fill="url(#SVGID_1_)" d="M58.1,141.4c0,1.4,1.7,2.9,0.3,2.9H38.1c-1.4,0-2.5-1.1-2.5-2.5v-20.3c0-1.4,1.1-2.5,2.5-2.5h20.3
	c1.3,0,2,0.8,2,2.2L58.1,141.4z"/>
<linearGradient id="SVGID_2_" gradientUnits="userSpaceOnUse" x1="46.75" y1="285.4" x2="46.75" y2="184.7264" gradientTransform="matrix(0.4171 0 0 -0.4171 0 238.1482)">
	<stop  offset="0" style="stop-color:#FFD700"/>
	<stop  offset="1" style="stop-color:#FF9D00"/>
</linearGradient>
<path fill="url(#SVGID_2_)" d="M32.1,141.8c0,1.4-1.1,2.5-2.5,2.5H9.3c-1.4,0-2.5-1.1-2.5-2.5v-20.3c0-1.4,1.1-2.5,2.5-2.5h20.3
	c1.4,0,2.5,1.1,2.5,2.5L32.1,141.8L32.1,141.8z"/>
<linearGradient id="SVGID_3_" gradientUnits="userSpaceOnUse" x1="115.75" y1="285.4233" x2="115.75" y2="184.7497" gradientTransform="matrix(0.4171 0 0 -0.4171 0 238.1482)">
	<stop  offset="0" style="stop-color:#FFD700"/>
	<stop  offset="1" style="stop-color:#FF9D00"/>
</linearGradient>
<path fill="url(#SVGID_3_)" d="M60.9,170.6c0,1.4-1.1,2.5-2.5,2.5H38.1c-1.4,0-2.5-1.1-2.5-2.5v-20.3c0-1.4,1.1-2.5,2.5-2.5h20.3
	c1.4,0,2.3,17.6,2.3,19L60.9,170.6z"/>
<linearGradient id="SVGID_4_" gradientUnits="userSpaceOnUse" x1="46.75" y1="285.4233" x2="46.75" y2="184.7497" gradientTransform="matrix(0.4171 0 0 -0.4171 0 238.1482)">
	<stop  offset="0" style="stop-color:#FFD700"/>
	<stop  offset="1" style="stop-color:#FF9D00"/>
</linearGradient>
<path fill="url(#SVGID_4_)" d="M32.1,170.6c0,1.4-1.1,2.5-2.5,2.5H9.3c-1.4,0-2.5-1.1-2.5-2.5v-20.3c0-1.4,1.1-2.5,2.5-2.5h20.3
	c1.4,0,2.5,1.1,2.5,2.5L32.1,170.6L32.1,170.6z"/>
<path fill="#FFFFFF" d="M60.1,121.2c0.1,2.8-9.5,5.3-14.9,7c-2.1,0.6-3,2.8-1.4,5c5.5,7.5,16.1,24.5,17.1,37.3c0,0,0-45.7,0-48.8
	c0-1.5-1.1-2.3-2-2.5C58.9,119.2,60.1,119.5,60.1,121.2z"/>
</svg>
